<?xml version="1.0" encoding="UTF-8"?>
<svg xmlns="http://www.w3.org/2000/svg" width="1200" height="720" viewBox="0 0 1200 720" font-family="-apple-system, system-ui, sans-serif">
<g class="layer-background"><rect x="0" y="0" width="1200" height="720" fill="#fafaf7" /></g>
<g class="layer-graticule"></g>
<g class="layer-north-america-context"></g>
<g class="layer-basemap-fill"></g>
<g class="layer-basemap-borders"></g>
<g class="layer-raster-overlay"></g>
<g class="layer-basemap-re-stroke"></g>
<g class="layer-vector-symbology"><g class="timeline-plot"><rect x="110" y="102" width="1066" height="466" fill="white" stroke="#d8d4c8" stroke-width="0.6" />
<text x="98" y="161.0" text-anchor="end" font-size="11" font-weight="600" fill="#3d3a32">Wind</text>
<rect x="110.0" y="108.0" width="88.8" height="98.0" fill="#1565c0" fill-opacity="0.08" />
<g opacity="1">
  <line x1="149.6" y1="162.2" x2="159.2" y2="135.8" stroke="#1565c0" stroke-width="2"  />
  <polygon points="159.2,135.8 160.2,144.7 152.7,142.0" fill="#1565c0" />
</g>
<text x="154.4" y="185.0" text-anchor="middle" font-size="11" font-weight="600" fill="#1565c0" opacity="1">14 KT</text>
<rect x="198.8" y="108.0" width="977.2" height="98.0" fill="#1565c0" fill-opacity="0.08" />
<g opacity="1">
  <line x1="678.4" y1="138.3" x2="696.4" y2="159.7" stroke="#1565c0" stroke-width="2"  />
  <polygon points="696.4,159.7 688.2,156.2 694.3,151.0" fill="#1565c0" />
</g>
<text x="687.4" y="185.0" text-anchor="middle" font-size="11" font-weight="600" fill="#1565c0" opacity="1">20G30 KT</text>
<line x1="110" y1="212.0" x2="1176.0" y2="212.0" stroke="#d8d4c8" stroke-width="0.4" />
<text x="98" y="261.0" text-anchor="end" font-size="11" font-weight="600" fill="#3d3a32">Visibility</text>
<rect x="110.0" y="218.0" width="88.8" height="78.0" fill="#1565c0" fill-opacity="1" />
<text x="154.4" y="261.0" text-anchor="middle" font-size="13" font-weight="700" fill="white" stroke="#3d3a32" stroke-width="0.3">5SM</text>
<rect x="198.8" y="218.0" width="977.2" height="78.0" fill="#1565c0" fill-opacity="1" />
<text x="687.4" y="261.0" text-anchor="middle" font-size="13" font-weight="700" fill="white" stroke="#3d3a32" stroke-width="0.3">5SM</text>
<line x1="110" y1="302.0" x2="1176.0" y2="302.0" stroke="#d8d4c8" stroke-width="0.4" />
<text x="98" y="351.0" text-anchor="end" font-size="11" font-weight="600" fill="#3d3a32">Ceiling</text>
<rect x="110.0" y="308.0" width="88.8" height="78.0" fill="#1565c0" fill-opacity="1" />
<text x="154.4" y="351.0" text-anchor="middle" font-size="13" font-weight="700" fill="white" stroke="#3d3a32" stroke-width="0.3">4500ft</text>
<text x="154.4" y="380.0" text-anchor="middle" font-size="9" font-weight="700" fill="white" letter-spacing="0.6">MVFR</text>
<rect x="198.8" y="308.0" width="977.2" height="78.0" fill="#1565c0" fill-opacity="1" />
<text x="687.4" y="351.0" text-anchor="middle" font-size="13" font-weight="700" fill="white" stroke="#3d3a32" stroke-width="0.3">2500ft</text>
<text x="687.4" y="380.0" text-anchor="middle" font-size="9" font-weight="700" fill="white" letter-spacing="0.6">MVFR</text>
<line x1="110" y1="392.0" x2="1176.0" y2="392.0" stroke="#d8d4c8" stroke-width="0.4" />
<text x="98" y="436.0" text-anchor="end" font-size="11" font-weight="600" fill="#3d3a32">Weather</text>

<line x1="110" y1="472.0" x2="1176.0" y2="472.0" stroke="#d8d4c8" stroke-width="0.4" />
<text x="98" y="506.0" text-anchor="end" font-size="11" font-weight="600" fill="#3d3a32">Probability</text>

<line x1="110" y1="532.0" x2="1176.0" y2="532.0" stroke="#3d3a32" stroke-width="0.8" />
<g class="time-axis"><line x1="287.7" y1="532.0" x2="287.7" y2="537.0" stroke="#3d3a32" stroke-width="0.6" />
<text x="287.7" y="550.0" text-anchor="middle" font-size="10" fill="#3d3a32">21Z</text>
<line x1="554.2" y1="532.0" x2="554.2" y2="537.0" stroke="#3d3a32" stroke-width="0.6" />
<text x="554.2" y="550.0" text-anchor="middle" font-size="10" fill="#3d3a32">20/00Z</text>
<line x1="820.7" y1="532.0" x2="820.7" y2="537.0" stroke="#3d3a32" stroke-width="0.6" />
<text x="820.7" y="550.0" text-anchor="middle" font-size="10" fill="#3d3a32">03Z</text>
<line x1="1087.2" y1="532.0" x2="1087.2" y2="537.0" stroke="#3d3a32" stroke-width="0.6" />
<text x="1087.2" y="550.0" text-anchor="middle" font-size="10" fill="#3d3a32">06Z</text>
<text x="1180.0" y="550.0" font-size="10" fill="#7a7568">UTC</text></g></g></g>
<g class="layer-point-symbology"><line x1="198.8" y1="102.0" x2="198.8" y2="532.0" stroke="#7a7568" stroke-width="0.8"  />
<g class="period-badge">
  <rect x="171.8" y="84.0" width="54.0" height="16" fill="#3d3a32" rx="2" />
  <text x="198.8" y="96.0" text-anchor="middle" font-size="9" font-weight="700" fill="white" letter-spacing="0.4">FM 1920</text>
</g></g>
<g class="layer-chrome"><g class="chrome-title">
  <rect x="0" y="0" width="1200" height="60" fill="#fafaf7" />
  <line x1="0" y1="60" x2="1200" y2="60" stroke="#d8d4c8" stroke-width="0.6" />
  <text x="24" y="26" font-size="16" font-weight="700" fill="#3d3a32" letter-spacing="1.2">TAF TIMELINE -- KCPS (TRUTH-DERIVED)</text>
  <text x="24" y="46" font-size="12" fill="#7a7568">2026-03-19T18:20:00.000Z TAF -- valid 2026-03-19T19:00:00.000Z to 2026-03-20T07:00:00.000Z</text>
  <text x="1176" y="26" text-anchor="end" font-size="11" font-weight="600" fill="#7a7568">TAF Timeline</text>
  
</g>
<g class="footer-taf-legend">
  <rect x="24" y="606" width="1152" height="82" fill="white" fill-opacity="0.94" stroke="#d8d4c8" stroke-width="0.6" rx="3" />
  <text x="32" y="618.0" font-size="10" font-weight="700" fill="#3d3a32" letter-spacing="0.6">FLIGHT CATEGORY (visibility + ceiling color)</text>
  <rect x="40" y="620.0" width="14" height="14" fill="#2e7d32" />
<text x="60" y="632.0" font-size="10" fill="#3d3a32">VFR</text>
<rect x="120" y="620.0" width="14" height="14" fill="#1565c0" />
<text x="140" y="632.0" font-size="10" fill="#3d3a32">MVFR</text>
<rect x="200" y="620.0" width="14" height="14" fill="#c62828" />
<text x="220" y="632.0" font-size="10" fill="#3d3a32">IFR</text>
<rect x="280" y="620.0" width="14" height="14" fill="#6a1b9a" />
<text x="300" y="632.0" font-size="10" fill="#3d3a32">LIFR</text>
  <text x="32" y="652.0" font-size="10" font-weight="700" fill="#3d3a32" letter-spacing="0.6">CHANGE-GROUP TYPE</text>
  <rect x="40" y="656.0" width="14" height="14" fill="#3d3a32" />
<text x="60" y="668.0" font-size="10" fill="#3d3a32">FM (firm change)</text>
<rect x="220" y="656.0" width="14" height="14" fill="#1565c0" />
<text x="240" y="668.0" font-size="10" fill="#3d3a32">BECMG (transition)</text>
<rect x="400" y="656.0" width="14" height="14" fill="#ef6c00" />
<text x="420" y="668.0" font-size="10" fill="#3d3a32">TEMPO (transient)</text>
<rect x="580" y="656.0" width="14" height="14" fill="#6a1b9a" />
<text x="600" y="668.0" font-size="10" fill="#3d3a32">PROB30/40</text>
  <text x="32" y="688.0" font-size="9" fill="#7a7568">Time runs left to right (UTC). Wind arrows point downwind. Vertical separators mark FM / BECMG / TEMPO / PROB period boundaries.</text>
</g>
<g class="chrome-footer">
  <rect x="0" y="696" width="1200" height="24" fill="#fafaf7" />
  <line x1="0" y1="696" x2="1200" y2="696" stroke="#d8d4c8" stroke-width="0.6" />
  <text x="24" y="712" font-size="10" fill="#7a7568">wx-engine -- truth-derived synthetic</text>
  <text x="1176" y="712" text-anchor="end" font-size="10" fill="#a09b8d">@ab/wx-charts@0.2.0</text>
</g></g>
</svg>
