<?xml version="1.0" encoding="UTF-8"?>
<svg xmlns="http://www.w3.org/2000/svg" width="1200" height="720" viewBox="0 0 1200 720" font-family="-apple-system, system-ui, sans-serif">
<g class="layer-background"><rect x="0" y="0" width="1200" height="720" fill="#fafaf7" /></g>
<g class="layer-graticule"></g>
<g class="layer-north-america-context"></g>
<g class="layer-basemap-fill"></g>
<g class="layer-basemap-borders"></g>
<g class="layer-raster-overlay"></g>
<g class="layer-basemap-re-stroke"></g>
<g class="layer-vector-symbology"><g class="timeline-plot"><rect x="110" y="102" width="1066" height="466" fill="white" stroke="#d8d4c8" stroke-width="0.6" />
<text x="98" y="161.0" text-anchor="end" font-size="11" font-weight="600" fill="#3d3a32">Wind</text>
<rect x="110.0" y="108.0" width="248.7" height="98.0" fill="#2e7d32" fill-opacity="0.08" />
<g opacity="1">
  <line x1="229.6" y1="135.8" x2="239.2" y2="162.2" stroke="#2e7d32" stroke-width="2"  />
  <polygon points="239.2,162.2 232.7,156.0 240.2,153.3" fill="#2e7d32" />
</g>
<text x="234.4" y="185.0" text-anchor="middle" font-size="11" font-weight="600" fill="#2e7d32" opacity="1">6 KT</text>
<rect x="358.7" y="108.0" width="390.9" height="98.0" fill="#2e7d32" fill-opacity="0.08" />
<g opacity="1">
  <line x1="561.2" y1="136.9" x2="547.2" y2="161.1" stroke="#2e7d32" stroke-width="2"  />
  <polygon points="547.2,161.1 547.7,152.2 554.6,156.2" fill="#2e7d32" />
</g>
<text x="554.2" y="185.0" text-anchor="middle" font-size="11" font-weight="600" fill="#2e7d32" opacity="1">9 KT</text>
<rect x="749.6" y="108.0" width="284.3" height="98.0" fill="#2e7d32" fill-opacity="0.08" />
<g opacity="1">
  <line x1="900.7" y1="138.3" x2="882.7" y2="159.7" stroke="#2e7d32" stroke-width="2"  />
  <polygon points="882.7,159.7 884.8,151.0 890.9,156.2" fill="#2e7d32" />
</g>
<text x="891.7" y="185.0" text-anchor="middle" font-size="11" font-weight="600" fill="#2e7d32" opacity="1">9 KT</text>
<rect x="1033.9" y="108.0" width="142.1" height="98.0" fill="#2e7d32" fill-opacity="0.08" />
<g opacity="1">
  <line x1="1111.9" y1="136.9" x2="1097.9" y2="161.1" stroke="#2e7d32" stroke-width="2"  />
  <polygon points="1097.9,161.1 1098.5,152.2 1105.4,156.2" fill="#2e7d32" />
</g>
<text x="1104.9" y="185.0" text-anchor="middle" font-size="11" font-weight="600" fill="#2e7d32" opacity="1">9 KT</text>
<line x1="110" y1="212.0" x2="1176.0" y2="212.0" stroke="#d8d4c8" stroke-width="0.4" />
<text x="98" y="261.0" text-anchor="end" font-size="11" font-weight="600" fill="#3d3a32">Visibility</text>
<rect x="110.0" y="218.0" width="248.7" height="78.0" fill="#2e7d32" fill-opacity="1" />
<text x="234.4" y="261.0" text-anchor="middle" font-size="13" font-weight="700" fill="white" stroke="#3d3a32" stroke-width="0.3">-</text>
<rect x="145.5" y="218.0" width="177.7" height="78.0" fill="#1565c0" fill-opacity="0.78" />
<text x="234.4" y="261.0" text-anchor="middle" font-size="13" font-weight="700" fill="white" stroke="#3d3a32" stroke-width="0.3">4SM</text>
<rect x="358.7" y="218.0" width="390.9" height="78.0" fill="#2e7d32" fill-opacity="1" />
<text x="554.2" y="261.0" text-anchor="middle" font-size="13" font-weight="700" fill="white" stroke="#3d3a32" stroke-width="0.3">-</text>
<rect x="394.3" y="218.0" width="71.1" height="78.0" fill="#1565c0" fill-opacity="0.78" />
<text x="429.8" y="261.0" text-anchor="middle" font-size="13" font-weight="700" fill="white" stroke="#3d3a32" stroke-width="0.3">4SM</text>
<rect x="749.6" y="218.0" width="284.3" height="78.0" fill="#2e7d32" fill-opacity="1" />
<text x="891.7" y="261.0" text-anchor="middle" font-size="13" font-weight="700" fill="white" stroke="#3d3a32" stroke-width="0.3">-</text>
<rect x="1033.9" y="218.0" width="142.1" height="78.0" fill="#2e7d32" fill-opacity="1" />
<text x="1104.9" y="261.0" text-anchor="middle" font-size="13" font-weight="700" fill="white" stroke="#3d3a32" stroke-width="0.3">-</text>
<line x1="110" y1="302.0" x2="1176.0" y2="302.0" stroke="#d8d4c8" stroke-width="0.4" />
<text x="98" y="351.0" text-anchor="end" font-size="11" font-weight="600" fill="#3d3a32">Ceiling</text>
<rect x="110.0" y="308.0" width="248.7" height="78.0" fill="#2e7d32" fill-opacity="1" />
<text x="234.4" y="351.0" text-anchor="middle" font-size="13" font-weight="700" fill="white" stroke="#3d3a32" stroke-width="0.3">12000ft</text>
<text x="234.4" y="380.0" text-anchor="middle" font-size="9" font-weight="700" fill="white" letter-spacing="0.6">VFR</text>
<rect x="145.5" y="308.0" width="177.7" height="78.0" fill="#1565c0" fill-opacity="0.78" />
<text x="234.4" y="351.0" text-anchor="middle" font-size="13" font-weight="700" fill="white" stroke="#3d3a32" stroke-width="0.3">4500ft</text>
<text x="234.4" y="380.0" text-anchor="middle" font-size="9" font-weight="700" fill="white" letter-spacing="0.6">MVFR</text>
<rect x="358.7" y="308.0" width="390.9" height="78.0" fill="#2e7d32" fill-opacity="1" />
<text x="554.2" y="351.0" text-anchor="middle" font-size="13" font-weight="700" fill="white" stroke="#3d3a32" stroke-width="0.3">6000ft</text>
<text x="554.2" y="380.0" text-anchor="middle" font-size="9" font-weight="700" fill="white" letter-spacing="0.6">VFR</text>
<rect x="394.3" y="308.0" width="71.1" height="78.0" fill="#1565c0" fill-opacity="0.78" />
<text x="429.8" y="351.0" text-anchor="middle" font-size="13" font-weight="700" fill="white" stroke="#3d3a32" stroke-width="0.3">4500ft</text>
<text x="429.8" y="380.0" text-anchor="middle" font-size="9" font-weight="700" fill="white" letter-spacing="0.6">MVFR</text>
<rect x="749.6" y="308.0" width="284.3" height="78.0" fill="#2e7d32" fill-opacity="1" />
<text x="891.7" y="351.0" text-anchor="middle" font-size="13" font-weight="700" fill="white" stroke="#3d3a32" stroke-width="0.3">6000ft</text>
<text x="891.7" y="380.0" text-anchor="middle" font-size="9" font-weight="700" fill="white" letter-spacing="0.6">VFR</text>
<rect x="1033.9" y="308.0" width="142.1" height="78.0" fill="#2e7d32" fill-opacity="1" />
<text x="1104.9" y="351.0" text-anchor="middle" font-size="13" font-weight="700" fill="white" stroke="#3d3a32" stroke-width="0.3">NSC</text>
<text x="1104.9" y="380.0" text-anchor="middle" font-size="9" font-weight="700" fill="white" letter-spacing="0.6">VFR</text>
<line x1="110" y1="392.0" x2="1176.0" y2="392.0" stroke="#d8d4c8" stroke-width="0.4" />
<text x="98" y="436.0" text-anchor="end" font-size="11" font-weight="600" fill="#3d3a32">Weather</text>
<rect x="145.5" y="398.0" width="177.7" height="68.0" fill="#3d3a32" fill-opacity="0.06" />
<text x="234.4" y="436.0" text-anchor="middle" font-size="12" font-weight="600" fill="#3d3a32" opacity="0.85">-TSRA</text>
<rect x="394.3" y="398.0" width="71.1" height="68.0" fill="#3d3a32" fill-opacity="0.06" />
<text x="429.8" y="436.0" text-anchor="middle" font-size="12" font-weight="600" fill="#3d3a32" opacity="0.85">-TSRA</text>
<line x1="110" y1="472.0" x2="1176.0" y2="472.0" stroke="#d8d4c8" stroke-width="0.4" />
<text x="98" y="506.0" text-anchor="end" font-size="11" font-weight="600" fill="#3d3a32">Probability</text>
<rect x="145.5" y="478.0" width="177.7" height="48.0" fill="#6a1b9a" fill-opacity="0.18" stroke="#6a1b9a" stroke-width="0.6" stroke-dasharray="3,2" />
<text x="234.4" y="506.0" text-anchor="middle" font-size="12" font-weight="700" fill="#6a1b9a">PROB30</text>
<rect x="394.3" y="478.0" width="71.1" height="48.0" fill="#6a1b9a" fill-opacity="0.18" stroke="#6a1b9a" stroke-width="0.6" stroke-dasharray="3,2" />
<text x="429.8" y="506.0" text-anchor="middle" font-size="12" font-weight="700" fill="#6a1b9a">PROB30</text>
<line x1="110" y1="532.0" x2="1176.0" y2="532.0" stroke="#3d3a32" stroke-width="0.8" />
<g class="time-axis"><line x1="110.0" y1="532.0" x2="110.0" y2="537.0" stroke="#3d3a32" stroke-width="0.6" />
<text x="110.0" y="550.0" text-anchor="middle" font-size="10" fill="#3d3a32">18Z</text>
<line x1="216.6" y1="532.0" x2="216.6" y2="537.0" stroke="#3d3a32" stroke-width="0.6" />
<text x="216.6" y="550.0" text-anchor="middle" font-size="10" fill="#3d3a32">21Z</text>
<line x1="323.2" y1="532.0" x2="323.2" y2="537.0" stroke="#3d3a32" stroke-width="0.6" />
<text x="323.2" y="550.0" text-anchor="middle" font-size="10" fill="#3d3a32">11/00Z</text>
<line x1="429.8" y1="532.0" x2="429.8" y2="537.0" stroke="#3d3a32" stroke-width="0.6" />
<text x="429.8" y="550.0" text-anchor="middle" font-size="10" fill="#3d3a32">03Z</text>
<line x1="536.4" y1="532.0" x2="536.4" y2="537.0" stroke="#3d3a32" stroke-width="0.6" />
<text x="536.4" y="550.0" text-anchor="middle" font-size="10" fill="#3d3a32">06Z</text>
<line x1="643.0" y1="532.0" x2="643.0" y2="537.0" stroke="#3d3a32" stroke-width="0.6" />
<text x="643.0" y="550.0" text-anchor="middle" font-size="10" fill="#3d3a32">09Z</text>
<line x1="749.6" y1="532.0" x2="749.6" y2="537.0" stroke="#3d3a32" stroke-width="0.6" />
<text x="749.6" y="550.0" text-anchor="middle" font-size="10" fill="#3d3a32">12Z</text>
<line x1="856.2" y1="532.0" x2="856.2" y2="537.0" stroke="#3d3a32" stroke-width="0.6" />
<text x="856.2" y="550.0" text-anchor="middle" font-size="10" fill="#3d3a32">15Z</text>
<line x1="962.8" y1="532.0" x2="962.8" y2="537.0" stroke="#3d3a32" stroke-width="0.6" />
<text x="962.8" y="550.0" text-anchor="middle" font-size="10" fill="#3d3a32">18Z</text>
<line x1="1069.4" y1="532.0" x2="1069.4" y2="537.0" stroke="#3d3a32" stroke-width="0.6" />
<text x="1069.4" y="550.0" text-anchor="middle" font-size="10" fill="#3d3a32">21Z</text>
<line x1="1176.0" y1="532.0" x2="1176.0" y2="537.0" stroke="#3d3a32" stroke-width="0.6" />
<text x="1176.0" y="550.0" text-anchor="middle" font-size="10" fill="#3d3a32">12/00Z</text>
<text x="1180.0" y="550.0" font-size="10" fill="#7a7568">UTC</text></g></g></g>
<g class="layer-point-symbology"><line x1="145.5" y1="102.0" x2="145.5" y2="532.0" stroke="#7a7568" stroke-width="0.8" stroke-dasharray="4,3" />
<g class="period-badge">
  <rect x="91.5" y="84.0" width="108.0" height="16" fill="#6a1b9a" rx="2" />
  <text x="145.5" y="96.0" text-anchor="middle" font-size="9" font-weight="700" fill="white" letter-spacing="0.4">PROB30 1019-1100</text>
</g>
<line x1="358.7" y1="102.0" x2="358.7" y2="532.0" stroke="#7a7568" stroke-width="0.8"  />
<g class="period-badge">
  <rect x="331.7" y="84.0" width="54.0" height="16" fill="#3d3a32" rx="2" />
  <text x="358.7" y="96.0" text-anchor="middle" font-size="9" font-weight="700" fill="white" letter-spacing="0.4">FM 1101</text>
</g>
<line x1="394.3" y1="102.0" x2="394.3" y2="532.0" stroke="#7a7568" stroke-width="0.8" stroke-dasharray="4,3" />
<g class="period-badge">
  <rect x="340.3" y="84.0" width="108.0" height="16" fill="#6a1b9a" rx="2" />
  <text x="394.3" y="96.0" text-anchor="middle" font-size="9" font-weight="700" fill="white" letter-spacing="0.4">PROB30 1102-1104</text>
</g>
<line x1="749.6" y1="102.0" x2="749.6" y2="532.0" stroke="#7a7568" stroke-width="0.8"  />
<g class="period-badge">
  <rect x="722.6" y="84.0" width="54.0" height="16" fill="#3d3a32" rx="2" />
  <text x="749.6" y="96.0" text-anchor="middle" font-size="9" font-weight="700" fill="white" letter-spacing="0.4">FM 1112</text>
</g>
<line x1="1033.9" y1="102.0" x2="1033.9" y2="532.0" stroke="#7a7568" stroke-width="0.8"  />
<g class="period-badge">
  <rect x="1006.9" y="84.0" width="54.0" height="16" fill="#3d3a32" rx="2" />
  <text x="1033.9" y="96.0" text-anchor="middle" font-size="9" font-weight="700" fill="white" letter-spacing="0.4">FM 1120</text>
</g></g>
<g class="layer-chrome"><g class="chrome-title">
  <rect x="0" y="0" width="1200" height="60" fill="#fafaf7" />
  <line x1="0" y1="60" x2="1200" y2="60" stroke="#d8d4c8" stroke-width="0.6" />
  <text x="24" y="26" font-size="16" font-weight="700" fill="#3d3a32" letter-spacing="1.2">TAF TIMELINE -- KMEM</text>
  <text x="24" y="46" font-size="12" fill="#7a7568">2026-05-10 1720Z TAF -- valid 1018Z to 1124Z (issued by Memphis WFO)</text>
  <text x="1176" y="26" text-anchor="end" font-size="11" font-weight="600" fill="#7a7568">TAF Timeline</text>
  
</g>
<g class="footer-taf-legend">
  <rect x="24" y="606" width="1152" height="82" fill="white" fill-opacity="0.94" stroke="#d8d4c8" stroke-width="0.6" rx="3" />
  <text x="32" y="618.0" font-size="10" font-weight="700" fill="#3d3a32" letter-spacing="0.6">FLIGHT CATEGORY (visibility + ceiling color)</text>
  <rect x="40" y="620.0" width="14" height="14" fill="#2e7d32" />
<text x="60" y="632.0" font-size="10" fill="#3d3a32">VFR</text>
<rect x="120" y="620.0" width="14" height="14" fill="#1565c0" />
<text x="140" y="632.0" font-size="10" fill="#3d3a32">MVFR</text>
<rect x="200" y="620.0" width="14" height="14" fill="#c62828" />
<text x="220" y="632.0" font-size="10" fill="#3d3a32">IFR</text>
<rect x="280" y="620.0" width="14" height="14" fill="#6a1b9a" />
<text x="300" y="632.0" font-size="10" fill="#3d3a32">LIFR</text>
  <text x="32" y="652.0" font-size="10" font-weight="700" fill="#3d3a32" letter-spacing="0.6">CHANGE-GROUP TYPE</text>
  <rect x="40" y="656.0" width="14" height="14" fill="#3d3a32" />
<text x="60" y="668.0" font-size="10" fill="#3d3a32">FM (firm change)</text>
<rect x="220" y="656.0" width="14" height="14" fill="#1565c0" />
<text x="240" y="668.0" font-size="10" fill="#3d3a32">BECMG (transition)</text>
<rect x="400" y="656.0" width="14" height="14" fill="#ef6c00" />
<text x="420" y="668.0" font-size="10" fill="#3d3a32">TEMPO (transient)</text>
<rect x="580" y="656.0" width="14" height="14" fill="#6a1b9a" />
<text x="600" y="668.0" font-size="10" fill="#3d3a32">PROB30/40</text>
  <text x="32" y="688.0" font-size="9" fill="#7a7568">Time runs left to right (UTC). Wind arrows point downwind. Vertical separators mark FM / BECMG / TEMPO / PROB period boundaries.</text>
</g>
<g class="chrome-footer">
  <rect x="0" y="696" width="1200" height="24" fill="#fafaf7" />
  <line x1="0" y1="696" x2="1200" y2="696" stroke="#d8d4c8" stroke-width="0.6" />
  <text x="24" y="712" font-size="10" fill="#7a7568">AWC TAF feed (https://aviationweather.gov/api/data/taf)</text>
  <text x="1176" y="712" text-anchor="end" font-size="10" fill="#a09b8d">@ab/wx-charts@0.3.1</text>
</g></g>
</svg>
